<?xml version="1.0" encoding="UTF-8" standalone="no"?>
<!-- Created with Inkscape (http://www.inkscape.org/) -->

<svg
   xmlns:dc="http://purl.org/dc/elements/1.1/"
   xmlns:cc="http://creativecommons.org/ns#"
   xmlns:rdf="http://www.w3.org/1999/02/22-rdf-syntax-ns#"
   xmlns:svg="http://www.w3.org/2000/svg"
   xmlns="http://www.w3.org/2000/svg"
   xmlns:sodipodi="http://sodipodi.sourceforge.net/DTD/sodipodi-0.dtd"
   xmlns:inkscape="http://www.inkscape.org/namespaces/inkscape"
   width="256mm"
   height="136mm"
   viewBox="0 0 256 136"
   version="1.1"
   id="svg9562"
   inkscape:version="0.92.5 (2060ec1f9f, 2020-04-08)"
   sodipodi:docname="accent_tv.svg">
  <defs
     id="defs9556" />
  <sodipodi:namedview
     id="base"
     pagecolor="#ffffff"
     bordercolor="#666666"
     borderopacity="1.0"
     inkscape:pageopacity="0.0"
     inkscape:pageshadow="2"
     inkscape:zoom="0.98994949"
     inkscape:cx="-55.254459"
     inkscape:cy="636.71658"
     inkscape:document-units="mm"
     inkscape:current-layer="layer1"
     showgrid="false"
     inkscape:window-width="3840"
     inkscape:window-height="2056"
     inkscape:window-x="0"
     inkscape:window-y="50"
     inkscape:window-maximized="1" />
  <metadata
     id="metadata9559">
    <rdf:RDF>
      <cc:Work
         rdf:about="">
        <dc:format>image/svg+xml</dc:format>
        <dc:type
           rdf:resource="http://purl.org/dc/dcmitype/StillImage" />
        <dc:title></dc:title>
      </cc:Work>
    </rdf:RDF>
  </metadata>
  <g
     inkscape:label="Layer 1"
     inkscape:groupmode="layer"
     id="layer1"
     transform="translate(0,-161)">
    <path
       style="fill:#ff0000;stroke-width:1.20034516"
       d="m 8.0001582,287.5247 c 0.0227,-0.82517 17.7987998,-13.65282 39.5061298,-28.50593 21.70732,-14.8531 39.10278,-27.39247 38.65651,-27.86526 -0.44645,-0.47282 -4.58401,-1.74899 -9.19502,-2.836 -11.12446,-2.62252 -14.30732,-4.24061 -14.77809,-7.51288 -1.06177,-7.38024 5.75054,-7.68785 26.09742,-1.17841 23.330702,7.46398 43.525132,18.02162 57.342722,29.97875 2.93178,2.53706 5.70277,4.6125 6.15779,4.61209 0.45507,-3.6e-4 2.91159,-5.11386 5.45899,-11.36331 2.54744,-6.24941 5.36747,-11.97309 6.26673,-12.71933 0.89929,-0.74624 10.04644,-3.93676 20.32705,-7.09008 25.33441,-7.77078 26.05649,-8.63269 5.98819,-7.14808 -10.7913,0.79832 -13.69849,0.65529 -15.90583,-0.78274 -1.48554,-0.9678 -2.70098,-2.56932 -2.70098,-3.55893 0,-0.98965 2.2043,-6.18276 4.89839,-11.54023 3.6412,-7.24087 4.37507,-9.54005 2.85932,-8.95849 -1.12148,0.43051 -14.72828,8.40219 -30.23725,17.71538 -15.50902,9.31319 -29.22316,17.20104 -30.47585,17.52857 -5.12683,1.3405 -7.95689,-5.86159 -3.76538,-9.58238 C 119.80826,212.00614 193.0339,169 195.74845,169 c 1.8279,0 3.53136,0.99459 4.36232,2.54704 1.16182,2.17047 0.29446,4.72808 -5.86542,17.29812 -3.97581,8.11308 -6.91117,15.06863 -6.52302,15.45672 0.38792,0.3883 13.47245,0.70562 29.07615,0.70562 20.46526,0 28.77177,0.40148 29.81095,1.44031 1.88099,1.88073 1.84659,6.35823 -0.0599,7.81028 -1.40369,1.06899 -41.26471,13.57285 -62.72299,19.67537 -5.28195,1.50213 -10.18769,3.1604 -10.90169,3.68512 -0.714,0.52468 -4.40366,7.93322 -8.1993,16.46343 -4.86645,10.93677 -7.59692,15.69135 -9.26103,16.12643 -1.64202,0.42959 -4.58351,-1.26992 -9.67005,-5.58637 -4.02059,-3.41186 -9.53271,-7.97591 -12.24916,-10.1423 -5.79977,-4.62539 -25.37629,-16.41821 -29.18773,-17.58256 -2.03203,-0.62075 -8.120222,2.43122 -26.409702,13.23916 -13.07287,7.72522 -32.41202,19.13644 -42.97587,25.35822 -10.56391,6.22178 -19.72026,11.81142 -20.34747,12.42138 -1.6868,1.64044 -6.6684898,1.34617 -6.6242498,-0.3915 z"
       id="path14050"
       inkscape:connector-curvature="0" />
  </g>
</svg>
