<?xml version="1.0" encoding="UTF-8" standalone="no"?>
<!-- Created with Inkscape (http://www.inkscape.org/) -->

<svg
   xmlns:dc="http://purl.org/dc/elements/1.1/"
   xmlns:cc="http://creativecommons.org/ns#"
   xmlns:rdf="http://www.w3.org/1999/02/22-rdf-syntax-ns#"
   xmlns:svg="http://www.w3.org/2000/svg"
   xmlns="http://www.w3.org/2000/svg"
   xmlns:sodipodi="http://sodipodi.sourceforge.net/DTD/sodipodi-0.dtd"
   xmlns:inkscape="http://www.inkscape.org/namespaces/inkscape"
   width="256mm"
   height="256mm"
   viewBox="0 0 256 256"
   version="1.1"
   id="svg8"
   inkscape:version="0.92.5 (2060ec1f9f, 2020-04-08)"
   sodipodi:docname="iasi_tv_life.svg">
  <defs
     id="defs2" />
  <sodipodi:namedview
     id="base"
     pagecolor="#ffffff"
     bordercolor="#666666"
     borderopacity="1.0"
     inkscape:pageopacity="0.0"
     inkscape:pageshadow="2"
     inkscape:zoom="0.98994949"
     inkscape:cx="-60.11568"
     inkscape:cy="444.13073"
     inkscape:document-units="mm"
     inkscape:current-layer="g4838"
     showgrid="false"
     inkscape:window-width="3840"
     inkscape:window-height="2056"
     inkscape:window-x="0"
     inkscape:window-y="50"
     inkscape:window-maximized="1" />
  <metadata
     id="metadata5">
    <rdf:RDF>
      <cc:Work
         rdf:about="">
        <dc:format>image/svg+xml</dc:format>
        <dc:type
           rdf:resource="http://purl.org/dc/dcmitype/StillImage" />
        <dc:title />
      </cc:Work>
    </rdf:RDF>
  </metadata>
  <g
     inkscape:label="Layer 1"
     inkscape:groupmode="layer"
     id="layer1"
     transform="translate(0,-41)">
    <g
       id="g4838"
       style="stroke:#000000;stroke-width:5;stroke-miterlimit:4;stroke-dasharray:none;stroke-opacity:1;paint-order:stroke fill markers"
       transform="matrix(0.9795697,0,0,0.9795697,2.6124918,3.4527156)">
      <g
         id="g4822"
         style="fill:#f37721;fill-opacity:1;stroke:#000000;stroke-width:3.06256921;stroke-miterlimit:4;stroke-dasharray:none;stroke-opacity:1;paint-order:normal">
        <path
           style="fill:#f37721;fill-opacity:1;stroke:#000000;stroke-width:3.06256921;stroke-miterlimit:4;stroke-dasharray:none;stroke-opacity:1;paint-order:normal"
           d="m 64.129941,227.99185 c -16.1166,0.0633 -20.38156,-0.001 -20.49772,-0.31089 -0.0807,-0.21496 -0.18188,-17.50143 -0.2249,-38.41435 l -0.0782,-38.0235 -17.34815,0.0118 c -14.17869,0.009 -17.41187,-0.0653 -17.69684,-0.40768 -0.24431,-0.29356 -0.32396,-3.24565 -0.26609,-9.86339 l 0.0826,-9.44445 55.73599,-0.0786 c 52.864329,-0.0745 55.747529,-0.0505 55.960329,0.46631 0.12341,0.29969 0.22437,4.56001 0.22437,9.46738 0,6.90653 -0.0916,9.01374 -0.40528,9.32642 -0.3207,0.31964 -3.93182,0.41847 -17.3025,0.47355 -9.293469,0.0383 -17.072029,0.0732 -17.285689,0.0777 -0.30754,0.006 -0.40497,7.99062 -0.46764,38.32418 l -0.0792,38.31605 z"
           id="path4785"
           inkscape:connector-curvature="0" />
        <path
           style="fill:#f37721;fill-opacity:1;stroke:#000000;stroke-width:3.06256921;stroke-miterlimit:4;stroke-dasharray:none;stroke-opacity:1;paint-order:normal"
           d="m 186.37783,228.06725 c -23.27492,0 -29.45792,-0.0813 -29.55224,-0.3886 -0.0656,-0.21373 -0.4624,-1.36788 -0.88176,-2.56478 -0.41935,-1.19688 -1.28853,-3.85491 -1.93151,-5.90673 -0.64299,-2.05181 -1.34813,-4.2202 -1.56698,-4.81865 -0.21885,-0.59844 -1.61596,-4.86528 -3.1047,-9.48186 -1.48874,-4.61659 -3.27762,-10.14248 -3.9753,-12.27979 -0.69767,-2.13732 -1.37368,-4.16581 -1.50224,-4.50777 -0.12855,-0.34197 -0.83161,-2.51036 -1.56234,-4.81865 -0.73073,-2.3083 -1.51818,-4.63773 -1.74989,-5.17653 -0.23173,-0.53879 -0.4213,-1.09575 -0.4213,-1.23769 0,-0.14193 -1.21067,-3.96794 -2.69037,-8.50223 -1.47971,-4.53429 -3.28877,-10.06283 -4.02016,-12.28563 -0.7314,-2.2228 -1.26165,-4.15351 -1.17836,-4.29049 0.0833,-0.13697 5.04946,-0.21913 11.03591,-0.18256 5.98645,0.0365 10.95617,-0.005 11.04383,-0.0925 0.0877,-0.0874 -0.57929,-0.67632 -1.48206,-1.30868 -0.90279,-0.63238 -2.35834,-1.66783 -3.23456,-2.30102 -0.87622,-0.63319 -2.20899,-1.57893 -2.9617,-2.10164 -0.7527,-0.52273 -2.14014,-1.48504 -3.08321,-2.13848 -0.94306,-0.65345 -1.99524,-1.43206 -2.33817,-1.73025 -0.34293,-0.29818 -0.77433,-0.59493 -0.95865,-0.65944 -0.18432,-0.0645 -1.16636,-0.71922 -2.1823,-1.45493 -1.01594,-0.7357 -3.85801,-2.76419 -6.31573,-4.50777 -2.4577,-1.74357 -4.45686,-3.31003 -4.44258,-3.48101 0.017,-0.20295 7.11813,-0.33865 20.45296,-0.39084 l 20.42697,-0.0799 0.32759,0.85716 c 0.18016,0.47144 0.39492,1.27684 0.47722,1.78981 0.0824,0.51295 0.27958,1.42227 0.43839,2.02072 0.15881,0.59844 0.64808,2.62694 1.08727,4.50777 0.4392,1.88083 0.94427,3.97927 1.12239,4.66321 0.17814,0.68394 0.44413,1.80311 0.59109,2.48704 0.14697,0.68395 0.49552,2.15285 0.77457,3.26426 0.27903,1.11139 0.62653,2.5803 0.77222,3.26424 0.14569,0.68394 0.69713,3.06218 1.22544,5.28498 0.5283,2.22279 1.2542,5.23056 1.6131,6.68393 0.35891,1.45337 0.85112,3.48187 1.09379,4.50777 0.24267,1.02592 0.57646,2.42487 0.74178,3.10881 0.1653,0.68394 0.52302,2.22279 0.79492,3.41969 0.27191,1.19689 0.61169,2.6658 0.75508,3.26425 0.14338,0.59844 0.56104,2.34715 0.92815,3.88601 0.3671,1.53885 1.01882,4.26683 1.44828,6.06217 0.42945,1.79534 0.91507,3.75389 1.07917,4.35233 0.16409,0.59845 0.58958,2.2772 0.94553,3.73057 0.35597,1.45337 0.78958,3.13213 0.9636,3.73057 0.17402,0.59844 0.39182,1.47887 0.484,1.95649 0.0921,0.47763 0.3175,0.81857 0.50075,0.75766 0.18325,-0.0609 0.49969,-0.84804 0.70323,-1.74919 0.20352,-0.90114 0.51424,-1.94158 0.69046,-2.31206 0.17624,-0.3705 0.55874,-1.6529 0.85001,-2.84979 0.29128,-1.19689 0.64504,-2.6658 0.78615,-3.26425 0.1411,-0.59844 0.48437,-1.92746 0.76281,-2.95336 0.27845,-1.02591 0.6896,-2.70467 0.91369,-3.73057 0.22409,-1.02591 0.784,-3.3342 1.24428,-5.12954 0.46026,-1.79534 1.04165,-3.97602 1.29198,-4.84597 0.25034,-0.86995 0.45515,-1.87595 0.45515,-2.23554 0,-0.35959 0.14029,-0.74028 0.31176,-0.84594 0.17146,-0.10563 0.31176,-0.5412 0.31176,-0.96784 0,-0.42662 0.33518,-1.9922 0.74485,-3.47906 0.40966,-1.48685 0.83846,-3.12306 0.95288,-3.63601 0.11442,-0.51295 0.42174,-1.84197 0.68293,-2.95336 0.26119,-1.1114 0.49877,-2.37047 0.52796,-2.79793 0.0292,-0.42746 0.15826,-0.8554 0.28683,-0.95096 0.12856,-0.0955 0.50305,-1.28468 0.83218,-2.64249 0.32912,-1.3578 0.84259,-3.51795 1.14101,-4.80033 0.29842,-1.28239 0.64772,-2.54145 0.77622,-2.79793 0.12849,-0.25647 0.61789,-2.14508 1.08754,-4.19689 0.46965,-2.05182 1.04357,-4.33001 1.27536,-5.06267 0.23178,-0.73266 0.42143,-1.66871 0.42143,-2.08011 0,-0.41138 0.12547,-0.82531 0.27883,-0.91982 0.15334,-0.0945 0.35205,-0.69733 0.44155,-1.33959 0.0896,-0.64227 0.34984,-1.86723 0.57851,-2.72216 0.22867,-0.85492 0.52927,-1.72927 0.66799,-1.943 0.1977,-0.30461 4.83744,-0.3886 21.46663,-0.3886 16.83968,0 21.18504,0.0801 21.07195,0.3886 -0.0784,0.21373 -0.38799,1.22797 -0.68805,2.25389 -0.30008,1.0259 -0.66191,2.14507 -0.8041,2.48703 -0.14218,0.34197 -0.63726,1.81089 -1.10017,3.26426 -0.46291,1.45337 -1.02179,3.13213 -1.24194,3.73057 -0.22016,0.59844 -1.1246,3.32642 -2.00988,6.06217 -0.88527,2.73576 -1.72293,5.25388 -1.86148,5.59585 -0.13853,0.34197 -0.50803,1.46114 -0.8211,2.48705 -0.31307,1.0259 -0.65603,2.00518 -0.76212,2.17616 -0.10605,0.17099 -0.58801,1.56995 -1.07092,3.10882 -0.48292,1.53885 -1.35904,4.19688 -1.94695,5.90673 -0.5879,1.70984 -1.14046,3.3886 -1.22789,3.73057 -0.0874,0.34196 -0.28578,0.90155 -0.44076,1.24352 -0.15498,0.34197 -0.48169,1.40839 -0.726,2.36983 -0.24432,0.96144 -0.59198,2.01067 -0.7726,2.33161 -0.18061,0.32094 -0.6935,1.77265 -1.13977,3.22602 -0.44625,1.45337 -0.91842,2.85233 -1.04924,3.10881 -0.13083,0.25647 -0.69418,1.93523 -1.25189,3.73056 -0.55771,1.79534 -1.13066,3.54405 -1.27321,3.88601 -0.14255,0.34198 -0.50069,1.39119 -0.79588,2.33161 -0.29518,0.94041 -0.64522,1.98964 -0.77785,2.3316 -0.13264,0.34198 -0.62072,1.81089 -1.08465,3.26426 -0.46392,1.45337 -1.02913,3.13212 -1.25601,3.73057 -0.22688,0.59844 -0.58082,1.64766 -0.7865,2.3316 -0.20569,0.68394 -0.48473,1.52331 -0.62009,1.86528 -0.13536,0.34198 -0.83248,2.44042 -1.54915,4.66321 -0.71666,2.2228 -1.48397,4.5311 -1.70512,5.12954 -0.22116,0.59845 -0.61514,1.78756 -0.87553,2.64249 -0.26038,0.85492 -0.78524,2.46373 -1.16634,3.57513 -0.3811,1.1114 -0.83078,2.40544 -0.99927,2.87564 l -0.30638,0.85493 z"
           id="path4783"
           inkscape:connector-curvature="0" />
      </g>
      <g
         id="g4818"
         style="fill:#eaeaea;fill-opacity:1;stroke:#000000;stroke-width:3.06256921;stroke-miterlimit:4;stroke-dasharray:none;stroke-opacity:1;paint-order:normal">
        <g
           id="g4800"
           style="fill:#eaeaea;fill-opacity:1;stroke:#000000;stroke-width:3.06256921;stroke-miterlimit:4;stroke-dasharray:none;stroke-opacity:1;paint-order:normal">
          <path
             id="path4781"
             d="m 23.531541,122.91488 c -11.81805,0.0637 -15.01222,-0.002 -15.13034,-0.31089 -0.0824,-0.21537 -0.11359,-13.0522 -0.0693,-28.526293 l 0.0805,-28.134709 10.98944,-0.0817 c 6.51181,-0.04841 10.98942,-0.199551 10.98942,-0.370945 0,-0.159087 -2.34987,-2.106485 -5.22192,-4.327551 -2.87207,-2.221067 -7.32629,-5.665884 -9.89828,-7.655149 -2.572,-1.989265 -4.72171,-3.817279 -4.77715,-4.062253 -0.0864,-0.381456 1.89171,-0.445407 13.77684,-0.445407 7.71384,0 13.95337,0.122206 14.04817,0.275145 0.0938,0.15133 0.17564,16.764021 0.18191,36.917091 l 0.0118,36.641951 -14.98061,0.0807 z"
             style="fill:#eaeaea;fill-opacity:1;stroke:#000000;stroke-width:3.06256921;stroke-miterlimit:4;stroke-dasharray:none;stroke-opacity:1;paint-order:normal"
             inkscape:connector-curvature="0" />
          <path
             id="path4779"
             transform="matrix(0.26458333,0,0,0.26458333,0,41)"
             d="m 341.48242,30.236328 c -66.43967,0 -78.12795,0.246294 -77.32812,1.63086 0.51825,0.897116 7.83493,6.976927 16.25976,13.509765 8.4248,6.532842 18.83514,14.654257 23.13477,18.048828 4.29959,3.394568 14.2422,11.139251 22.09375,17.210938 7.85155,6.071682 14.27539,11.492646 14.27539,12.044922 0,0.552279 -23.26578,1.003906 -51.70117,1.003906 -42.17261,0 -51.94555,0.295132 -53.03125,1.599609 -0.73198,0.879561 -17.23268,49.176894 -36.66993,107.328124 -19.43724,58.15122 -35.34179,106.08079 -35.34179,106.50977 0,0.42946 27.17099,0.64399 60.3789,0.47656 l 60.37696,-0.30469 6.53906,-25.84961 c 3.59637,-14.2173 6.89879,-26.7753 7.33789,-27.90625 0.73829,-1.90238 3.79177,-2.05664 40.80469,-2.05664 h 40.00781 l 1.26367,3.81836 c 0.69498,2.10028 3.88847,14.26503 7.09571,27.03125 3.20723,12.76622 6.15609,23.73759 6.55468,24.38086 0.46519,0.7508 21.59568,1.16992 58.98242,1.16992 32.0408,0 58.25586,-0.31891 58.25586,-0.70703 0,-0.38835 -2.42585,-8.18638 -5.39062,-17.33008 -2.9647,-9.14373 -6.10623,-18.7412 -6.98047,-21.32617 -0.8742,-2.58493 -4.87469,-15.00963 -8.89062,-27.61133 -4.0159,-12.60166 -9.37349,-29.25683 -11.9043,-37.01172 -2.53081,-7.75488 -5.86267,-18.0653 -7.4043,-22.9121 -1.54159,-4.8468 -5.9813,-18.59534 -9.86719,-30.55079 -3.88595,-11.95544 -10.60938,-32.83911 -14.9414,-46.41015 -4.33198,-13.57105 -9.08226,-28.376711 -10.55469,-32.900393 -1.47239,-4.523683 -4.9627,-15.363649 -7.75781,-24.087891 -2.79515,-8.724245 -5.58811,-16.522279 -6.20508,-17.330078 -0.87757,-1.149022 -18.15974,-1.46875 -79.39258,-1.46875 z m -2.72851,67.212891 c 0.47476,-0.01484 0.91534,0.217465 1.39453,0.695312 0.71935,0.717343 6.79406,23.125659 13.5,49.796879 6.70582,26.67122 12.1914,48.90267 12.1914,49.40429 0,0.50163 -12.19421,0.91211 -27.09961,0.91211 -22.01041,0 -27.10156,-0.29725 -27.10156,-1.58984 0,-0.87535 2.45373,-11.05437 5.45313,-22.61914 2.99943,-11.56478 5.72152,-22.34924 6.04882,-23.96485 0.32712,-1.6156 2.98506,-12.19079 5.90626,-23.5 2.92119,-11.3092 5.56016,-21.99753 5.86328,-23.7539 0.30334,-1.75638 1.31115,-3.822914 2.24023,-4.591799 0.61888,-0.512171 1.12875,-0.77422 1.60352,-0.789062 z"
             style="fill:#eaeaea;fill-opacity:1;stroke:#000000;stroke-width:11.57506487;stroke-miterlimit:4;stroke-dasharray:none;stroke-opacity:1;paint-order:normal"
             inkscape:connector-curvature="0" />
          <path
             id="path4775"
             d="m 166.39507,122.98552 c -14.1031,0.002 -25.6504,-0.10081 -25.66067,-0.22907 -0.0106,-0.12824 -0.0186,-3.59067 -0.0185,-7.6943 l 2.3e-4,-7.46114 19.26944,-0.15544 19.26943,-0.15544 1.64923,-0.74313 c 1.26952,-0.57204 1.83908,-1.06618 2.47382,-2.14622 0.66189,-1.12627 0.81895,-1.77702 0.79605,-3.29832 -0.0157,-1.04238 -0.2406,-2.384867 -0.49981,-2.983312 -0.25918,-0.598446 -0.86855,-1.451851 -1.35413,-1.896454 -0.48557,-0.444603 -1.51417,-1.071323 -2.28577,-1.392709 -1.26537,-0.527051 -2.45739,-0.59276 -12.15851,-0.670209 -7.83612,-0.06257 -11.428,-0.210407 -13.23274,-0.544672 -1.36242,-0.252343 -3.51006,-0.947963 -4.77253,-1.545821 -1.52721,-0.72323 -2.9,-1.689926 -4.10201,-2.888561 -1.20079,-1.197419 -2.18092,-2.580975 -2.92279,-4.125861 -0.6139,-1.278372 -1.35282,-3.303586 -1.64204,-4.500477 -0.41411,-1.713693 -0.52253,-3.623275 -0.51015,-8.985537 0.0121,-5.279096 0.13432,-7.305168 0.54353,-9.015543 0.29031,-1.213393 1.02582,-3.226271 1.6345,-4.473062 0.80855,-1.656233 1.66191,-2.786798 3.16784,-4.196891 1.13363,-1.061499 2.40709,-2.095407 2.82988,-2.297573 0.42281,-0.202168 1.25975,-0.563864 1.85989,-0.803769 0.60013,-0.239907 1.58216,-0.602767 2.18229,-0.806358 0.60013,-0.203589 2.49406,-0.510269 4.20871,-0.681508 1.86932,-0.186685 12.47953,-0.276787 26.49934,-0.225032 l 23.38176,0.08631 V 56.772 64.38858 l -18.0819,0.16674 c -16.79338,0.154858 -18.18186,0.208522 -19.48479,0.753067 -0.77161,0.32248 -1.90968,1.06142 -2.52905,1.642087 -0.61937,0.580666 -1.27544,1.570802 -1.45794,2.200299 -0.21607,0.74528 -0.23458,1.732974 -0.053,2.831372 0.18128,1.097028 0.59361,2.075328 1.17924,2.797927 0.49528,0.611102 1.34676,1.371812 1.89219,1.690468 0.54542,0.318656 1.51259,0.719645 2.14924,0.891087 0.63666,0.171438 6.3483,0.423914 12.69255,0.561049 8.93093,0.193055 11.91354,0.358717 13.21176,0.733823 0.92223,0.266465 2.6826,0.980078 3.91196,1.585811 1.49487,0.736554 2.86384,1.742882 4.13316,3.038306 1.04388,1.065336 2.23998,2.566507 2.658,3.335937 0.41802,0.769431 0.98518,2.098446 1.26035,2.953368 0.27517,0.854922 0.66184,2.11399 0.85926,2.797927 0.19742,0.683937 0.42986,3.691709 0.51654,6.683937 0.13517,4.666975 0.0663,5.899815 -0.48434,8.671885 -0.35306,1.77731 -1.06553,4.13417 -1.58328,5.23746 -0.51774,1.1033 -1.39829,2.58361 -1.95677,3.28958 -0.55848,0.70597 -1.43629,1.67319 -1.95069,2.14938 -0.51439,0.47618 -2.05759,1.4284 -3.42931,2.11604 -1.59612,0.80011 -3.56037,1.46897 -5.45575,1.85777 -2.79681,0.57371 -4.38926,0.60776 -28.60368,0.61162 z"
             style="fill:#eaeaea;fill-opacity:1;stroke:#000000;stroke-width:3.06256921;stroke-miterlimit:4;stroke-dasharray:none;stroke-opacity:1;paint-order:normal"
             inkscape:connector-curvature="0" />
          <path
             id="path4771"
             d="m 232.55694,122.98952 c -12.06733,1e-5 -15.47551,-0.0849 -15.59162,-0.38859 -0.0818,-0.21373 -0.11241,-13.04923 -0.0681,-28.523317 l 0.0805,-28.134709 11.48176,-0.08158 c 6.39397,-0.04542 11.43627,-0.202128 11.37912,-0.35363 -0.0564,-0.149629 -4.73223,-3.733533 -10.3906,-7.964228 -5.65839,-4.230697 -10.40095,-7.885127 -10.53903,-8.120958 -0.21216,-0.362385 2.0085,-0.416268 14.34082,-0.347975 l 14.59185,0.0808 0.0792,36.91709 0.0792,36.917097 z"
             style="fill:#eaeaea;fill-opacity:1;stroke:#000000;stroke-width:3.06256921;stroke-miterlimit:4;stroke-dasharray:none;stroke-opacity:1;paint-order:normal"
             inkscape:connector-curvature="0" />
        </g>
        <g
           transform="translate(-1.605517,2.7082535)"
           style="fill-opacity:1;paint-order:normal;fill:#eaeaea;stroke-width:3.06256921;stroke-miterlimit:4;stroke-dasharray:none"
           id="g4935">
          <rect
             y="236.61661"
             x="95.899742"
             height="52.063675"
             width="15.312846"
             id="rect4807"
             style="opacity:1;fill-opacity:1;paint-order:normal;fill:#eaeaea;stroke-width:3.06256921;stroke-miterlimit:4;stroke-dasharray:none" />
          <path
             inkscape:connector-curvature="0"
             id="rect4807-2"
             d="m 125.02596,236.61656 v 52.06366 h 15.31297 V 267.9399 h 22.9771 v -10.20847 h -22.9771 v -10.90641 h 22.97657 v -10.20846 h -22.97657 z"
             style="opacity:1;fill-opacity:1;paint-order:normal;fill:#eaeaea;stroke-width:3.06256921;stroke-miterlimit:4;stroke-dasharray:none" />
          <path
             id="rect4807-2-7"
             d="m 177.12942,236.73085 v 52.06367 h 15.31297 22.97657 v -10.209 H 192.44239 V 268.0542 h 22.9771 v -10.20847 h -22.9771 v -10.90641 h 22.97657 v -10.20847 h -22.97657 z"
             style="opacity:1;fill-opacity:1;paint-order:normal;fill:#eaeaea;stroke-width:3.06256921;stroke-miterlimit:4;stroke-dasharray:none"
             inkscape:connector-curvature="0" />
          <path
             inkscape:connector-curvature="0"
             id="rect4807-3"
             d="m 43.796825,236.6165 v 52.06366 h 15.312966 22.97657 V 278.47169 H 59.109791 V 236.6165 Z"
             style="opacity:1;fill-opacity:1;paint-order:normal;fill:#eaeaea;stroke-width:3.06256921;stroke-miterlimit:4;stroke-dasharray:none" />
        </g>
      </g>
    </g>
  </g>
</svg>
