<?xml version="1.0" encoding="UTF-8" standalone="no"?>
<svg
   xmlns:dc="http://purl.org/dc/elements/1.1/"
   xmlns:cc="http://creativecommons.org/ns#"
   xmlns:rdf="http://www.w3.org/1999/02/22-rdf-syntax-ns#"
   xmlns:svg="http://www.w3.org/2000/svg"
   xmlns="http://www.w3.org/2000/svg"
   xmlns:sodipodi="http://sodipodi.sourceforge.net/DTD/sodipodi-0.dtd"
   xmlns:inkscape="http://www.inkscape.org/namespaces/inkscape"
   sodipodi:docname="media_tv.svg"
   inkscape:version="1.0 (4035a4fb49, 2020-05-01)"
   id="svg8"
   version="1.1"
   viewBox="0 0 240 60"
   height="60mm"
   width="240mm">
  <defs
     id="defs2" />
  <sodipodi:namedview
     inkscape:window-maximized="1"
     inkscape:window-y="25"
     inkscape:window-x="0"
     inkscape:window-height="1028"
     inkscape:window-width="1920"
     showgrid="false"
     inkscape:document-rotation="0"
     inkscape:current-layer="layer1"
     inkscape:document-units="mm"
     inkscape:cy="86.785716"
     inkscape:cx="595.30638"
     inkscape:zoom="1.4"
     inkscape:pageshadow="2"
     inkscape:pageopacity="0.0"
     borderopacity="1.0"
     bordercolor="#666666"
     pagecolor="#ffffff"
     id="base" />
  <metadata
     id="metadata5">
    <rdf:RDF>
      <cc:Work
         rdf:about="">
        <dc:format>image/svg+xml</dc:format>
        <dc:type
           rdf:resource="http://purl.org/dc/dcmitype/StillImage" />
        <dc:title></dc:title>
      </cc:Work>
    </rdf:RDF>
  </metadata>
  <g
     id="layer1"
     inkscape:groupmode="layer"
     inkscape:label="Layer 1">
    <path
       transform="scale(0.26458333)"
       d="M 662.39648 0 L 662.39648 113.38477 L 662.39648 226.77148 L 784.74023 226.77148 L 907.08594 226.77148 L 907.08594 113.38477 L 907.08594 0 L 784.74023 0 L 662.39648 0 z M 674.75391 36.492188 L 715.66016 36.492188 L 756.56445 36.492188 L 755.82227 51.480469 L 755.08203 66.466797 L 742.10156 66.466797 L 729.12109 66.466797 L 729.125 129.67578 L 729.12695 129.67578 L 729.13086 192.88477 L 714.30078 192.88477 L 699.4707 192.88477 L 699.47266 129.67578 L 699.47461 66.466797 L 687.11328 67.371094 L 674.75391 68.273438 L 674.75391 52.382812 L 674.75391 36.492188 z M 761.52734 36.492188 L 776.89062 36.492188 L 792.25391 36.492188 L 800.0625 60.603516 C 804.35665 73.86429 812.21775 97.989445 817.5332 114.21484 L 827.19727 143.71484 L 834.92188 120.73047 C 839.16957 108.08908 847.2504 83.964079 852.87891 67.119141 L 863.11133 36.492188 L 877.68359 36.492188 C 885.6985 36.492188 892.25781 37.287446 892.25781 38.259766 C 892.25781 39.956018 851.06934 163.63652 844.23633 182.45898 C 841.05272 191.22874 840.38737 191.61258 827.01562 192.36523 C 817.29173 192.9124 812.75823 192.12712 811.94922 189.75781 C 811.31309 187.89379 801.76576 158.80507 790.73438 125.11523 C 779.70299 91.425395 768.61801 57.702295 766.10156 50.175781 L 761.52734 36.492188 z "
       style="fill:#eb1c24;fill-opacity:1;stroke-width:2.53819"
       id="path942" />
    <g
       id="g965">
      <path
         id="path856"
         style="fill:#0171bb;stroke-width:2.53819;fill-opacity:1"
         d="M 0 3.9101562 L 0 115.3418 L 0 226.77148 L 323.7832 226.77148 L 647.56641 226.77148 L 647.56641 115.3418 L 647.56641 3.9101562 L 323.7832 3.9101562 L 0 3.9101562 z M 7.4140625 13.033203 L 323.7832 13.033203 L 640.15039 13.033203 L 640.15039 115.99219 L 640.15039 218.95117 L 323.7832 218.95117 L 7.4140625 218.95117 L 7.4140625 115.99219 L 7.4140625 13.033203 z "
         transform="scale(0.26458333)" />
      <g
         id="g956">
        <path
           transform="scale(0.26458333)"
           d="M 323.7832 35.769531 L 323.7832 114.68945 L 323.7832 193.60938 L 345.41016 192.19336 C 371.38061 190.49238 387.54441 184.51387 401.75781 171.35352 C 417.89417 156.41266 425.11914 138.88863 425.11914 114.68945 C 425.11914 90.306659 417.89105 72.974507 401.29492 57.568359 C 387.09592 44.387635 372.32304 39.006291 345.41016 37.210938 L 323.7832 35.769531 z M 348.5 59.951172 L 354.75781 59.951172 C 363.67818 59.951172 378.20936 66.873614 386.50391 75.076172 C 414.09109 102.35733 404.88591 150.03923 368.96875 165.91211 C 364.5944 167.84534 358.19994 169.42773 354.75781 169.42773 L 348.5 169.42773 L 348.5 114.68945 L 348.5 59.951172 z "
           style="fill:#0171bb;stroke-width:2.53819;fill-opacity:1"
           id="path932" />
        <path
           transform="scale(0.26458333)"
           d="M 555.79492 37.794922 C 549.66076 37.959469 547.84125 43.242266 500.65039 170.20898 L 492.125 193.14258 L 504.66016 192.35938 L 517.19336 191.57812 L 527.17578 164.85938 L 537.1582 138.14258 L 557.14062 138.16211 L 577.125 138.17969 L 587.10352 164.88086 L 597.08008 191.58203 L 609.70117 192.36133 L 622.32227 193.13867 L 593.1582 115.4668 C 564.64908 39.54308 563.83646 37.794922 557.09375 37.794922 C 556.63173 37.794922 556.20387 37.783952 555.79492 37.794922 z M 557.52344 90.386719 C 558.61685 90.639909 561.50911 96.211043 563.95117 102.76758 L 568.39062 114.68945 L 557.35156 114.68945 L 546.3125 114.68945 L 550.92383 102.30859 C 553.46023 95.499019 556.43006 90.13349 557.52344 90.386719 z "
           style="fill:#0171bb;stroke-width:2.53819;fill-opacity:1"
           id="path938" />
        <path
           id="path936"
           d="M 119.01907,30.344787 V 9.6551675 h 2.94278 2.94278 v 20.6896195 20.68962 h -2.94278 -2.94278 z"
           style="fill:#0171bb;stroke-width:0.671564;fill-opacity:1" />
        <path
           id="path930"
           d="M 56.239781,30.344787 V 9.6551675 h 11.444138 11.44415 v 3.1034595 3.10343 h -8.52781 -8.52781 l 0.189945,5.68964 0.189944,5.68966 8.337871,0.19288 8.33788,0.19289 v 2.71739 2.7174 l -8.33788,0.19316 -8.337871,0.19287 -0.189944,5.689641 -0.189945,5.68965 h 8.52781 8.52781 v 3.10345 3.10342 H 67.683919 56.239781 Z"
           style="fill:#0171bb;stroke-width:0.671564;fill-opacity:1" />
        <path
           id="path928"
           d="M 10.136241,30.344787 V 9.6551675 h 2.735778 2.735781 l 6.338543,10.7027195 c 3.4862,5.88649 6.554847,10.84368 6.819215,11.01598 0.26437,0.17229 3.390731,-4.64064 6.947474,-10.69543 l 6.466803,-11.0086895 2.779294,-0.007 2.779291,-0.007 v 20.6896195 20.6896 h -2.942779 -2.942779 v -13.44823 c 0,-7.64894 -0.257408,-13.44825 -0.596908,-13.44825 -0.328301,0 -3.226929,4.48248 -6.441402,9.96106 l -5.844495,9.96109 -5.051555,-8.56895 c -8.170445,-13.859489 -7.522498,-14.02455 -7.547971,1.92263 l -0.02175,13.62066 h -3.106268 -3.106264 z"
           style="fill:#0171bb;stroke-width:0.671564;fill-opacity:1" />
      </g>
    </g>
  </g>
</svg>
