<?xml version="1.0" encoding="utf-8"?>
<!-- Generator: Adobe Illustrator 19.0.1, SVG Export Plug-In . SVG Version: 6.00 Build 0)  -->
<svg version="1.1" id="Layer_1" xmlns="http://www.w3.org/2000/svg" xmlns:xlink="http://www.w3.org/1999/xlink" x="0px" y="0px"
	 viewBox="0 0 176.5 46.5" style="enable-background:new 0 0 176.5 46.5;" xml:space="preserve">
<style type="text/css">
	.st0{fill:#008FFC;}
	.st1{fill:#000099;}
	.st2{fill:#FFFFFF;}
</style>
<g>
	<path class="st0" d="M176.7,42.7c0,1.8-1.4,3.2-3.2,3.2H129c-1.8,0-3.2-1.4-3.2-3.2V12.5c0-1.8,1.4-3.2,3.2-3.2h44.4
		c1.8,0,3.2,1.4,3.2,3.2V42.7z"/>
	<path class="st1" d="M75.7,0.9l-9.8,38.5c-0.8,3.2-1.8,5.2-3,6c-1.2,0.8-3.8,1.2-7.7,1.2c-3.8,0-6.3-0.4-7.6-1.1
		c-1.2-0.8-2.2-2.8-3-6l-7.7-30H23.8v35.9c0,0.7-0.3,0.9-0.9,0.9h-9.2c-0.6,0-0.9-0.3-0.9-0.9V9.5h-12C0.3,9.5,0,9.2,0,8.6V0.9
		C0,0.3,0.3,0,0.9,0h43.6c0.5,0,0.6,0.2,0.8,0.9l9,35.8c0.2,0.7,0.4,1.1,0.8,1.1c0.7,0,0.8-0.2,0.9-1.1l9-35.8
		C65.2,0.2,65.3,0,65.9,0h9C75.5,0,75.8,0.3,75.7,0.9"/>
	<path class="st1" d="M109.8,1.3c0.8,0.3,1.2,0.7,1.2,1.2v5.7c0,0.8-0.4,1.2-1.2,1.2H95.6c-2.9,0-4.3,1.1-4.3,3.1v0.7
		c0,1.7,1,2.9,3,3.7l10.1,3.7c3.1,1.2,5.4,2.6,6.7,4.4c1.3,1.7,2,4.4,2,8.1v1.5c0,8.2-6.1,11.8-17.6,11.8c-4.4,0-9.2-0.5-14.6-1.5
		c-0.8-0.2-1.1-0.6-1.1-1.5v-5.3c0-0.8,0.4-1.2,1.2-1.2H98c2.8,0,4.2-0.9,4.2-2.9v-0.6c0-2.1-1.1-3-4.1-4.1l-10.1-3.7
		c-5.2-1.9-7.7-5.1-7.7-12.8v-1.3C80.3,3.3,85.5,0,97.2,0C101.3,0,105.6,0.5,109.8,1.3"/>
</g>
<path class="st2" d="M169.1,19.4h-3.8l0.9-5.9c0.1-0.5-0.1-0.7-0.6-0.6l-5,1.3c-0.4,0.1-0.6,0.3-0.7,0.7l-0.7,4.6h-13.5
	c0,0,0,0-0.1,0h0c0,0-6.4,0-8.8,0.3c-0.4,0-0.6,0.3-0.7,0.7l-0.5,3.3c-0.1,0.5,0.1,0.7,0.5,0.7h7.4c2.7,0,3.7,0.9,3.4,2.8l-0.2,1.5
	h-5.2c-2.9,0-5.1,0.5-6.6,1.4c-1.4,0.9-2.4,2.7-2.8,5.3c-0.5,3.2-0.1,5,1.5,6c1.6,0.9,3.4,1.1,6.8,1.1c3.7,0,6.8-0.3,9.4-0.9
	c0.6-0.2,1-0.7,1.1-1.3l2.2-14.2c0.1-0.8,0.2-1.6,0.1-2.2h5.2l-2.1,13.3c-0.4,2.7,0.2,3.8,1.3,4.6c1.2,0.7,2.8,0.7,4.6,0.7
	c1.1,0,2.3-0.1,3.6-0.4c0.5-0.1,0.7-0.3,0.8-0.8l0.6-3.5c0-0.4-0.2-0.6-0.6-0.6H165c-1.8,0-2.3-0.4-2-2.1l1.7-11.2h3.8
	c0.5,0,0.7-0.2,0.8-0.6l0.5-3.3C169.8,19.6,169.6,19.4,169.1,19.4 M145.5,37.2c-1.1,0.3-2.5,0.4-4.2,0.4c-2.6,0-3.4-0.6-3.1-2.5
	c0.3-1.8,1.1-2.5,3.2-2.5h4.7L145.5,37.2z"/>
</svg>
